<svg xmlns="http://www.w3.org/2000/svg" width="64" height="64" viewBox="0 0 64 64" fill="none"><path d="M 32 7 C 45.8071 7 57 18.1929 57 32 C 57 45.8071 45.8071 57 32 57 C 18.1929 57 7 45.8071 7 32 C 7 18.1929 18.1929 7 32 7 Z" fill="#f0efff"/><path d="M 17 18 L 47 18 C 50.3137 18 53 20.6863 53 24 L 53 42 C 53 45.3137 50.3137 48 47 48 L 17 48 C 13.6863 48 11 45.3137 11 42 L 11 24 C 11 20.6863 13.6863 18 17 18 Z" fill="#ffffff"/><path d="M 17 18 L 47 18 C 50.3137 18 53 20.6863 53 24 L 53 42 C 53 45.3137 50.3137 48 47 48 L 17 48 C 13.6863 48 11 45.3137 11 42 L 11 24 C 11 20.6863 13.6863 18 17 18 Z" fill="none" stroke="#20242c" stroke-width="2" stroke-linecap="round" stroke-linejoin="round"/><path d="M 25 25 C 27.2091 25 29 26.7909 29 29 C 29 31.2091 27.2091 33 25 33 C 22.7909 33 21 31.2091 21 29 C 21 26.7909 22.7909 25 25 25 Z" fill="none" stroke="#635bff" stroke-width="2.3" stroke-linecap="round" stroke-linejoin="round"/><path d="M 18 40 C 18 33 32 33 32 40" fill="none" stroke="#635bff" stroke-width="2.3" stroke-linecap="round" stroke-linejoin="round"/><path d="M 38 28 L 46 28" fill="none" stroke="#20242c" stroke-width="2" stroke-linecap="round" stroke-linejoin="round"/><path d="M 38 34 L 43 34" fill="none" stroke="#20242c" stroke-width="2" stroke-linecap="round" stroke-linejoin="round"/></svg>
